<svg xmlns="http://www.w3.org/2000/svg" viewBox="0 0 192 192">
  <rect width="192" height="192" rx="42" fill="#1F2937"/>
  <!-- Route path -->
  <path d="M42 144 C 72 114 108 90 156 66" stroke="rgba(255,255,255,0.06)" stroke-width="24" stroke-linecap="round" fill="none"/>
  <path d="M42 144 C 72 114 108 90 156 66" stroke="#25D366" stroke-width="3.6" stroke-linecap="round" fill="none" stroke-dasharray="12 12"/>
  <!-- Car body -->
  <rect x="36" y="96" width="96" height="24" rx="7" fill="#25D366"/>
  <path d="M60 96l12-30h36l12 30" fill="#25D366"/>
  <!-- Windows -->
  <path d="M75 69l-9 24h24z" fill="#1F2937" opacity="0.5"/>
  <rect x="96" y="69" width="24" height="23" fill="#1F2937" opacity="0.5"/>
  <!-- Window divider -->
  <line x1="93" y1="69" x2="93" y2="93" stroke="#25D366" stroke-width="2.5"/>
  <!-- Headlight -->
  <circle cx="126" cy="105" r="4.5" fill="#FBBF24"/>
  <!-- Tail light -->
  <circle cx="40" cy="105" r="3.5" fill="#EF4444"/>
  <!-- Wheels -->
  <circle cx="60" cy="123" r="13.5" fill="#111827"/>
  <circle cx="60" cy="123" r="7.5" fill="#374151"/>
  <circle cx="108" cy="123" r="13.5" fill="#111827"/>
  <circle cx="108" cy="123" r="7.5" fill="#374151"/>
  <!-- Destination pin -->
  <circle cx="156" cy="60" r="12" fill="#25D366" opacity="0.3"/>
  <circle cx="156" cy="60" r="7.5" fill="#25D366"/>
  <circle cx="156" cy="60" r="2.5" fill="#1F2937"/>
</svg>
