<svg xmlns="http://www.w3.org/2000/svg" viewBox="0 0 512 512">
  <rect width="512" height="512" rx="110" fill="#1F2937"/>
  <!-- Route path -->
  <path d="M112 384 C 192 304 288 240 416 176" stroke="rgba(255,255,255,0.06)" stroke-width="64" stroke-linecap="round" fill="none"/>
  <path d="M112 384 C 192 304 288 240 416 176" stroke="#25D366" stroke-width="10" stroke-linecap="round" fill="none" stroke-dasharray="32 32"/>
  <!-- Car body -->
  <rect x="96" y="256" width="256" height="64" rx="20" fill="#25D366"/>
  <path d="M160 256l32-80h96l32 80" fill="#25D366"/>
  <!-- Windows -->
  <path d="M200 184l-24 64h64z" fill="#1F2937" opacity="0.5"/>
  <rect x="256" y="184" width="64" height="60" fill="#1F2937" opacity="0.5"/>
  <!-- Window divider -->
  <line x1="248" y1="184" x2="248" y2="248" stroke="#25D366" stroke-width="6"/>
  <!-- Headlight -->
  <circle cx="336" cy="280" r="12" fill="#FBBF24"/>
  <!-- Tail light -->
  <circle cx="108" cy="280" r="9" fill="#EF4444"/>
  <!-- Wheels -->
  <circle cx="160" cy="328" r="36" fill="#111827"/>
  <circle cx="160" cy="328" r="20" fill="#374151"/>
  <circle cx="288" cy="328" r="36" fill="#111827"/>
  <circle cx="288" cy="328" r="20" fill="#374151"/>
  <!-- Destination pin -->
  <circle cx="416" cy="160" r="32" fill="#25D366" opacity="0.3"/>
  <circle cx="416" cy="160" r="20" fill="#25D366"/>
  <circle cx="416" cy="160" r="7" fill="#1F2937"/>
</svg>
